
<svg xmlns="http://www.w3.org/2000/svg" viewBox="132 -133 303 306">
	<g fill="#c4141c">
		<rect x="138.5" y="45" width="10" height="40"/>
		<path d="M208.5-55v-70h-70v70H208.5z M148.5-115h50v50h-50V-115z"/>
		<rect x="148.5" y="-15" width="10" height="10"/>
		<rect x="158.5" y="-5" width="10" height="10"/>
		<rect x="158.5" y="-105" width="30" height="30"/>
		<rect x="158.5" y="-25" width="20" height="10"/>
		<polygon points="178.5,35 178.5,25 188.5,25 188.5,35 198.5,35 198.5,25 208.5,25 208.5,15 198.5,15 198.5,5 208.5,5 
			208.5,-5 198.5,-5 198.5,-15 208.5,-15 208.5,-25 188.5,-25 188.5,-15 178.5,-15 178.5,-5 188.5,-5 188.5,5 178.5,5 178.5,15 
			168.5,15 168.5,25 158.5,25 158.5,15 148.5,15 148.5,5 138.5,5 138.5,25 148.5,25 148.5,45 168.5,45 168.5,35 	"/>
			<rect x="168.5" y="75" width="10" height="10"/>
			<rect x="158.5" y="115" width="30" height="30"/>
			<polygon points="188.5,-45 138.5,-45 138.5,-25 148.5,-25 148.5,-35 178.5,-35 178.5,-25 188.5,-25 	"/>
			<polygon points="188.5,65 188.5,35 178.5,35 178.5,45 168.5,45 168.5,55 158.5,55 158.5,65 178.5,65 178.5,75 
				198.5,75 198.5,65 	"/>
				<path d="M138.5,95v70h70V95H138.5z M198.5,155h-50v-50h50V155z"/>
				<rect x="198.5" y="75" width="10" height="10"/>
				<rect x="208.5" y="-15" width="10" height="10"/>
				<rect x="208.5" y="5" width="10" height="10"/>
				<polygon points="218.5,45 228.5,45 228.5,35 218.5,35 208.5,35 198.5,35 198.5,45 208.5,45 208.5,55 198.5,55 
					198.5,65 208.5,65 208.5,75 218.5,75 	"/>
					<rect x="218.5" y="-115" width="10" height="10"/>
					<polygon points="228.5,-35 238.5,-35 238.5,-45 248.5,-45 248.5,-35 258.5,-35 258.5,-55 248.5,-55 248.5,-65 
						238.5,-65 238.5,-55 228.5,-55 228.5,-45 198.5,-45 198.5,-35 218.5,-35 218.5,-15 228.5,-15 	"/>
						<polygon points="228.5,75 218.5,75 218.5,105 228.5,105 228.5,115 238.5,115 238.5,95 228.5,95 	"/>
						<polygon points="218.5,165 228.5,165 228.5,155 248.5,155 248.5,145 228.5,145 228.5,135 238.5,135 238.5,125 
							228.5,125 228.5,115 218.5,115 	"/>
							<polygon points="238.5,-65 238.5,-85 248.5,-85 248.5,-95 218.5,-95 218.5,-85 228.5,-85 228.5,-75 218.5,-75 
								218.5,-55 228.5,-55 228.5,-65 	"/>
								<polygon points="238.5,5 248.5,5 248.5,-5 228.5,-5 228.5,15 218.5,15 218.5,25 238.5,25 	"/>
								<rect x="228.5" y="45" width="10" height="10"/>
								<rect x="228.5" y="65" width="10" height="10"/>
								<rect x="238.5" y="-125" width="10" height="20"/>
								<polygon points="238.5,-25 238.5,-15 248.5,-15 248.5,-25 248.5,-35 238.5,-35 	"/>
								<rect x="238.5" y="75" width="10" height="20"/>
								<polygon points="258.5,25 268.5,25 268.5,15 248.5,15 248.5,25 238.5,25 238.5,35 248.5,35 248.5,45 258.5,45 	"/>
								<polygon points="258.5,105 268.5,105 268.5,95 248.5,95 248.5,125 258.5,125 	"/>
								<rect x="258.5" y="-125" width="10" height="10"/>
								<polygon points="258.5,-55 268.5,-55 268.5,-65 278.5,-65 278.5,-55 288.5,-55 288.5,-65 298.5,-65 298.5,-45 
									308.5,-45 308.5,-85 298.5,-85 298.5,-75 278.5,-75 278.5,-95 268.5,-95 268.5,-105 258.5,-105 258.5,-85 268.5,-85 268.5,-75 
									248.5,-75 248.5,-65 258.5,-65 	"/>
									<polygon points="288.5,105 288.5,115 308.5,115 308.5,105 298.5,105 298.5,95 278.5,95 278.5,105 	"/>
									<polygon points="278.5,135 278.5,125 258.5,125 258.5,135 268.5,135 268.5,145 258.5,145 258.5,165 268.5,165 
										268.5,155 278.5,155 278.5,145 288.5,145 288.5,155 308.5,155 308.5,145 298.5,145 298.5,135 	"/>
										<rect x="278.5" y="155" width="10" height="10"/>
										<polygon points="288.5,-95 298.5,-95 298.5,-115 288.5,-115 288.5,-125 278.5,-125 278.5,-105 288.5,-105 	"/>
										<polygon points="268.5,-45 268.5,-35 258.5,-35 258.5,-25 278.5,-25 278.5,-35 298.5,-35 298.5,-45 	"/>
										<rect x="298.5" y="-125" width="10" height="10"/>
										<polygon points="298.5,-35 298.5,-25 288.5,-25 288.5,-5 298.5,-5 298.5,-15 318.5,-15 318.5,-25 338.5,-25 338.5,-45 
											348.5,-45 348.5,-85 338.5,-85 328.5,-85 328.5,-75 338.5,-75 338.5,-55 328.5,-55 328.5,-75 318.5,-75 318.5,-45 308.5,-45 
											308.5,-35 	"/>
											<rect x="298.5" y="85" width="10" height="10"/>
											<rect x="298.5" y="125" width="10" height="10"/>
											<rect x="308.5" y="-95" width="10" height="10"/>
											<rect x="308.5" y="75" width="10" height="10"/>
											<rect x="308.5" y="115" width="10" height="10"/>
											<rect x="308.5" y="155" width="10" height="10"/>
											<rect x="318.5" y="-115" width="10" height="20"/>
											<rect x="318.5" y="65"  width="20" height="10"/>
											<rect x="318.5" y="125" width="10" height="10"/>
											<polygon points="338.5,-105 348.5,-105 348.5,-125 328.5,-125 328.5,-115 338.5,-115 	"/>
											<polygon points="348.5,-25 358.5,-25 358.5,-15 348.5,-15 348.5,-25 338.5,-25 338.5,-5 368.5,-5 368.5,-15 378.5,-15 
												378.5,-5 388.5,-5 388.5,-35 378.5,-35 378.5,-45 368.5,-45 368.5,-35 358.5,-35 358.5,-45 348.5,-45 	"/>
												<rect x="358.5" y="95" width="10" height="10"/>
												<rect x="358.5" y="5" width="30" height="10"/>
												<rect x="378.5" y="-105" width="30" height="30"/>
												<rect x="388.5" y="-45" width="10" height="10"/>
												<polygon points="398.5,5 398.5,25 408.5,25 408.5,-5 388.5,-5 388.5,5 	"/>
												<polygon points="398.5,45 378.5,45 378.5,55 388.5,55 388.5,65 408.5,65 408.5,35 398.5,35 	"/>
												<rect x="408.5" y="-45" width="10" height="10"/>
												<rect x="408.5" y="-15" width="10" height="10"/>
												<rect x="408.5" y="25" width="10" height="10"/>
												<path d="M418.5,65h-10v10h-10v10h-10V65h-10V55h-10V45h-30V35h40V25h-30V5h-10V-5h-10V5h-10V-5h-10V5h-10v10h-10V-5
													h-20v-10h-10V5h20v20h30V15h10v10h10V15h10v10h-10v20h-10V35h-50v10h-10v10h20V45h20v10h-20v20h-10V65h-10v20h10v10h10V85h10V75h10
													V65h20V55h20v10h30v10h-30v20h-10v10h-10v10h20v20h-10v10h10v10h10v10h60v-10h-10v-10h10v10h10v-20h10v-30h-20v10h-10v-10h10V95h20
													V75h-10V65z M348.5,85h30v30h-30V85z M388.5,135h-10v-10h10V135z M348.5,135v-10h10h10v10h-10v10h-10V135z M388.5,155h-10v-10h10
													V155z M408.5,125v10h-10v-10H408.5z"/>
													<path d="M358.5-125v70h70v-70H358.5z M418.5-65h-50v-50h50V-65z"/>
													<rect x="418.5" y="-35" width="10" height="10"/>
													<rect x="418.5" y="5" width="10" height="10"/>
													<rect x="418.5" y="45" width="10" height="10"/>
												</g>
											</svg>